<svg width="72" height="80" viewBox="0 0 72 80" fill="currentColor" xmlns="http://www.w3.org/2000/svg" size="80"><path opacity="0.2" d="M72 40.606c0-3.943-1.606-7.64-4.411-10.822a29.682 29.682 0 01-4.818-7.527C58.804 13.378 52.04 7.53 44.36 7.53c-5.455 0-10.45 2.954-14.307 7.85-2.553 3.24-5.777 5.725-9.374 7.33-8.713 3.888-14.437 10.452-14.437 17.896 0 7.445 5.724 14.01 14.437 17.897 3.597 1.605 6.82 4.09 9.374 7.33 3.858 4.896 8.852 7.85 14.308 7.85 7.678 0 14.442-5.848 18.409-14.727a29.679 29.679 0 014.818-7.527C70.394 48.246 72 44.549 72 40.606z" fill="url(#smart-recommendations_svg__paint0_linear)"></path><path d="M66.175 31.765a.609.609 0 01-.454-.209l-1.413-1.57a.77.77 0 010-1.009l1.413-1.57a.598.598 0 01.908 0l1.413 1.57a.77.77 0 010 1.01l-1.413 1.57a.609.609 0 01-.454.208zm-.505-2.283l.505.56.505-.56-.505-.56-.505.56z" fill="#FF6C6C"></path><path d="M23.279 50.66a.609.609 0 01-.454-.208l-1.413-1.57a.77.77 0 010-1.009l1.413-1.57a.598.598 0 01.908 0l1.412 1.57a.77.77 0 010 1.01l-1.412 1.569a.61.61 0 01-.454.209zm-.505-2.282l.505.56.504-.56-.505-.561-.504.56z" fill="#EC5282"></path><path d="M23.507 20.765a.611.611 0 01-.454-.21l-1.45-1.61a.755.755 0 01-.189-.506c0-.189.068-.37.188-.504l1.45-1.611a.598.598 0 01.909 0l1.45 1.61a.77.77 0 010 1.01l-1.45 1.611a.61.61 0 01-.454.21zm-.543-2.325l.543.602.542-.602-.542-.603-.543.603z" fill="#FF9D33"></path><path d="M65.918 50.952c-.922 0-1.671-.833-1.671-1.857s.75-1.857 1.671-1.857 1.671.833 1.671 1.857-.75 1.857-1.671 1.857zm0-2.287c-.213 0-.387.193-.387.43s.174.43.387.43c.213 0 .387-.193.387-.43s-.174-.43-.387-.43zM21.964 39.77c-.921 0-1.671-.833-1.671-1.857s.75-1.857 1.671-1.857c.922 0 1.671.833 1.671 1.857s-.75 1.857-1.671 1.857zm0-2.287c-.213 0-.387.193-.387.43s.174.43.387.43c.213 0 .387-.193.387-.43s-.174-.43-.387-.43z" fill="#FF6C6C"></path><path opacity="0.1" d="M28.974 70.527c0 1.64 1.198 2.972 2.677 2.972h26.472c1.479 0 2.677-1.331 2.677-2.972V14.539c0-1.641-1.198-2.973-2.677-2.973H31.651c-1.479 0-2.677 1.332-2.677 2.973v55.988z" fill="#333C4E"></path><path d="M60.8 10.687v55.988c0 1.64-1.198 2.972-2.677 2.972H31.651c-1.478 0-2.677-1.331-2.677-2.972V10.687c0-1.641 1.199-2.973 2.677-2.973h3.336l9.772 1.427 9.889-1.427h3.475c1.479 0 2.677 1.332 2.677 2.973z" fill="#E6034B"></path><path d="M60.8 42.77V10.686c0-1.641-1.198-2.973-2.677-2.973h-3.475l-9.89 1.427-9.632-1.427h-3.475c-1.478 0-2.677 1.332-2.677 2.973v32.082H60.8z" fill="#FDE7E6"></path><path d="M53.562 11.71l1.086-3.997H35.126l1.086 3.997c.163.602.663 1.014 1.23 1.014h14.89c.567 0 1.066-.412 1.23-1.014z" fill="#FFAB66"></path><path d="M39.237 10.911c.344 0 .623-.31.623-.692 0-.383-.279-.693-.623-.693s-.623.31-.623.693c0 .382.279.692.623.692zM41.334 10.911c.344 0 .623-.31.623-.692 0-.383-.279-.693-.623-.693-.345 0-.624.31-.624.693 0 .382.28.692.624.692z" fill="#EC5282"></path><path d="M50.102 10.911h-4.778c-.33 0-.599-.297-.599-.665 0-.367.268-.664.599-.664h4.778c.33 0 .598.297.598.664 0 .368-.268.665-.599.665z" fill="#FF8B00"></path><path d="M46.385 24.282h-3.253v-2.68c0-.999.728-1.808 1.626-1.808.899 0 1.627.81 1.627 1.808v2.68z" fill="#E6034B"></path><path d="M56.816 35.588c-.372-6.961-5.57-12.48-11.93-12.48-6.358 0-11.556 5.519-11.929 12.48h23.86z" fill="#fff"></path><path d="M56.767 37.126h-23.76c-.585 0-1.06-.527-1.06-1.178 0-.65.475-1.177 1.06-1.177h23.76c.585 0 1.06.527 1.06 1.177s-.475 1.178-1.06 1.178z" fill="#EC5282"></path><path d="M45.969 49.846H36.14c-.355 0-.642-.32-.642-.713 0-.394.287-.714.642-.714h9.828c.354 0 .642.32.642.714 0 .394-.288.713-.642.713z" fill="#FCE6ED"></path><path d="M33.6 49.854c-.355 0-.642-.32-.642-.713v-.017c0-.394.287-.713.642-.713.354 0 .642.32.642.713v.017c0 .394-.288.713-.642.713z" fill="#fff"></path><path d="M49.822 52.855H36.14c-.355 0-.642-.32-.642-.714 0-.394.287-.713.642-.713h13.68c.355 0 .643.319.643.713 0 .394-.288.714-.642.714z" fill="#FCE6ED"></path><path d="M33.6 52.863c-.355 0-.643-.32-.643-.714v-.016c0-.394.288-.714.643-.714.354 0 .642.32.642.714v.016c0 .394-.288.714-.642.714z" fill="#fff"></path><path d="M45.969 55.863H36.14c-.355 0-.642-.32-.642-.714 0-.394.287-.713.642-.713h9.828c.354 0 .642.32.642.713 0 .394-.288.714-.642.714z" fill="#FCE6ED"></path><path d="M33.6 55.871c-.355 0-.643-.32-.643-.713v-.017c0-.394.288-.713.643-.713.354 0 .642.32.642.713v.017c0 .394-.288.713-.642.713z" fill="#fff"></path><path d="M41.73 58.871h-5.59c-.354 0-.641-.32-.641-.713 0-.394.287-.714.642-.714h5.59c.354 0 .642.32.642.714 0 .394-.288.713-.643.713z" fill="#FCE6ED"></path><path d="M33.6 58.88c-.355 0-.643-.32-.643-.714v-.016c0-.395.288-.714.643-.714.354 0 .642.32.642.714v.016c0 .394-.288.714-.642.714z" fill="#fff"></path><path d="M44.042 61.88h-7.901c-.355 0-.642-.32-.642-.714 0-.394.287-.713.642-.713h7.901c.355 0 .642.319.642.713 0 .394-.287.714-.642.714z" fill="#FCE6ED"></path><path d="M33.6 61.888c-.355 0-.643-.32-.643-.714v-.016c0-.394.288-.714.643-.714.354 0 .642.32.642.714v.016c0 .394-.288.714-.642.714z" fill="#fff"></path><path d="M60.8 48.17c.354 0 .642-.32.642-.714v-36.77C61.442 8.655 59.953 7 58.123 7h-18.63c-.355 0-.642.32-.642.713 0 .394.287.714.642.714h14.29l-.836 3.077c-.082.303-.33.507-.614.507H37.44c-.285 0-.532-.204-.614-.507L35.74 7.507c-.082-.301-.332-.507-.615-.507H31.65c-1.83 0-3.318 1.654-3.318 3.687v55.987c0 2.032 1.489 3.686 3.318 3.686h26.474c1.83 0 3.318-1.654 3.318-3.686V52.308c0-.394-.288-.714-.642-.714-.355 0-.643.32-.643.714v14.366c0 1.246-.912 2.26-2.033 2.26H31.65c-1.121 0-2.033-1.015-2.033-2.26V10.687c0-1.246.912-2.26 2.033-2.26h3l.947 3.49c.247.91.989 1.521 1.844 1.521h14.892c.855 0 1.597-.611 1.844-1.522l.948-3.49h2.998c1.122 0 2.034 1.015 2.034 2.26v36.77c0 .394.288.714.642.714z" fill="#333C4E"></path><path d="M56.268 65.935c.125.14.29.21.454.21.164 0 .329-.07.454-.21l.75-.832a.756.756 0 00.188-.504c0-.19-.068-.371-.189-.505l-.749-.832a.598.598 0 00-.908 0 .77.77 0 000 1.009l.295.328-.295.328a.77.77 0 000 1.008zM33.506 12.297a.598.598 0 00-.908 0l-.75.833a.755.755 0 00-.188.504c0 .19.068.371.189.505l.749.832a.61.61 0 00.454.21.61.61 0 00.454-.21.77.77 0 000-1.009l-.295-.328.295-.328a.77.77 0 000-1.009z" fill="#333C4E"></path><path d="M51.441 44.459H38.333c-.355 0-.643-.32-.643-.714v-1.953c0-.395.288-.714.643-.714H51.44c.355 0 .643.32.643.713v1.954c0 .394-.288.714-.643.714z" fill="#FF9D33"></path><path d="M29.844 37.88s6.67-5.288 6.468-10.576c-.202-5.287-5.256-14.17-19.405-11.632C2.757 18.21.023 26.693.837 31.64c.812 4.947 3.743 7.825 8.393 9.306 3.34 1.063 7.575 1.269 13.438 0 .606.634 3.032 2.75 5.66 3.807a23.87 23.87 0 008.685 1.722c.992.013 1.05-.28.192-.831-.86-.553-2.234-1.474-4.43-3.006-3.032-2.327-2.931-4.759-2.931-4.759z" fill="#FC8181"></path><path fill-rule="evenodd" clip-rule="evenodd" d="M32.265 17.927c3.227 2.707 4.643 6.468 4.753 9.344.114 2.984-1.688 5.835-3.345 7.835a26.508 26.508 0 01-3.09 3.138c.035.202.102.487.236.828.298.756.94 1.83 2.345 2.91 2.185 1.524 3.547 2.438 4.395 2.982.23.149.444.307.603.474.079.083.173.198.244.345.072.15.146.393.083.677a.936.936 0 01-.371.564 1.13 1.13 0 01-.375.168 2.88 2.88 0 01-.738.068 24.512 24.512 0 01-8.918-1.77c-2.447-.984-4.704-2.828-5.628-3.7-5.763 1.204-10.015.996-13.424-.09-2.4-.764-4.41-1.906-5.932-3.543C1.573 36.51.573 34.402.141 31.78c-.444-2.7.09-6.298 2.582-9.538 2.49-3.24 6.886-6.057 14.07-7.346 7.221-1.295 12.228.31 15.472 3.03zM29.433 37.24l.003-.002.012-.01.051-.041a22.587 22.587 0 00.93-.819 25.018 25.018 0 002.205-2.325c1.629-1.966 3.06-4.402 2.972-6.706-.092-2.41-1.304-5.735-4.192-8.157-2.87-2.408-7.465-3.976-14.395-2.733-6.965 1.249-11.012 3.941-13.222 6.815-2.209 2.872-2.635 5.99-2.266 8.237.382 2.326 1.254 4.13 2.555 5.53 1.309 1.408 3.09 2.446 5.338 3.162 3.205 1.02 7.322 1.237 13.108-.016a.66.66 0 01.62.2c.56.585 2.905 2.63 5.416 3.64a23.109 23.109 0 007.251 1.631 203.755 203.755 0 01-3.446-2.362c-1.619-1.243-2.44-2.545-2.848-3.584a5.745 5.745 0 01-.347-1.281 4.032 4.032 0 01-.04-.551v-.008-.016l.706.035-.706-.036a.81.81 0 01.295-.603zm7.996 8.422h-.003a.048.048 0 01.003 0z" fill="#333C4E"></path><path d="M20.87 19.792h-6.165a.49.49 0 00-.363.167.605.605 0 00-.15.404v5.708c0 .96.312 1.89.878 2.616.566.726 1.348 1.201 2.204 1.339v5.178c0 .303-.108.593-.3.807a.978.978 0 01-.727.334h-.77a.245.245 0 00-.183.084.302.302 0 00-.075.202v.285h5.138v-.285a.302.302 0 00-.076-.202.245.245 0 00-.181-.084h-.77a.978.978 0 01-.727-.334 1.21 1.21 0 01-.301-.807v-5.178c.855-.138 1.638-.613 2.204-1.34a4.266 4.266 0 00.878-2.615v-5.708a.604.604 0 00-.15-.404.49.49 0 00-.364-.167z" fill="#F7FAFC"></path><path d="M17.531 36.916h2.826v-.285h-2.57a.245.245 0 00-.18.084.303.303 0 00-.076.201z" fill="#fff" fill-opacity="0.9"></path><path d="M20.87 19.792h-3.082v6.279c0 .53-.19 1.038-.527 1.413a1.712 1.712 0 01-1.271.585c-.477 0-.934-.21-1.272-.585a2.116 2.116 0 01-.526-1.413c0 .96.312 1.89.878 2.616.566.726 1.348 1.201 2.204 1.339v.611c.136 0 .267.06.363.168.097.107.15.252.15.403v5.138h1.542a.978.978 0 01-.727-.335 1.21 1.21 0 01-.3-.807v-5.178c.855-.138 1.638-.613 2.204-1.34a4.266 4.266 0 00.878-2.615v-5.708a.604.604 0 00-.15-.404.49.49 0 00-.364-.167z" fill="#fff"></path><path d="M17.788 29.496c-.817-.001-1.6-.362-2.179-1.005-.578-.642-.903-1.512-.904-2.42v-4.567h6.165v4.567c0 .908-.326 1.778-.904 2.42-.578.643-1.361 1.004-2.178 1.005z" fill="#D20037"></path><path d="M15.147 27.836c.26.153.549.233.843.233.477 0 .934-.21 1.271-.585.337-.375.527-.883.527-1.413v-4.567h-3.083v4.567c0 .622.153 1.232.442 1.765z" fill="#F39BB7"></path><path d="M15.733 20.648c0-.157-.115-.285-.257-.285-.142 0-.257.128-.257.285v5.423c0 .158.115.285.257.285.142 0 .257-.127.257-.285v-5.423z" fill="#fff" fill-opacity="0.9"></path><defs><linearGradient id="smart-recommendations_svg__paint0_linear" x1="72" y1="73.683" x2="15.477" y2="0.407" gradientUnits="userSpaceOnUse"><stop stop-color="#E6034B"></stop><stop offset="1" stop-color="#FF9300"></stop></linearGradient></defs></svg>