<svg width="72" height="80" viewBox="0 0 72 80" fill="currentColor" xmlns="http://www.w3.org/2000/svg" size="80"><g clip-path="url(#integrations_svg__clip0)"><path opacity="0.3" d="M70.576 24.18c-3.144-8.889-12.829-14.22-21.031-10.692-9.364 4.027-6.259 20.574-14.764 23.92-4.594 1.808-11.385-4.944-16.026-5.98C10.201 29.522 2.459 36.227.552 45.513c-1.945 9.473 1.175 22.126 10.542 24.698 11.159 3.063 16.971-8.083 26.332-11.283 9.606-3.285 20.287 4.472 28.24-4.965 5.875-6.972 8.023-20.98 4.91-29.782z" fill="url(#integrations_svg__paint0_linear)"></path><path opacity="0.11" d="M58.312 66.701H55.4V36.523c0-1.8-1.313-3.258-2.931-3.258h-7.466V19.353c0-.65-.5-1.168-1.083-1.113-6.444.61-11.503 6.616-11.503 13.934 0 .367.013.73.038 1.09H14.803c-1.62 0-2.931 1.458-2.931 3.258v30.18H8.96c-.969 0-1.754.872-1.754 1.949v1.791c0 1.89 1.378 3.422 3.08 3.422h46.701c1.702 0 3.08-1.533 3.08-3.422v-1.791c0-1.077-.786-1.95-1.755-1.95z" fill="#333C4E"></path><path opacity="0.11" d="M56.207 12.961c-1.93-1.803-4.354-2.975-7.014-3.227-.584-.055-1.084.462-1.084 1.113v12.821l8.159-9.065c.415-.462.388-1.221-.061-1.642z" fill="#333C4E"></path><path d="M57.931 33.71v32.646c0 .431-.315.781-.703.781H14.404V33.711c0-1.8 1.312-3.258 2.93-3.258h37.667c1.618 0 2.93 1.458 2.93 3.258z" fill="#FF4D4D"></path><path d="M57.93 33.71v5.684c-2.252 3.665-6.03 6.096-10.308 6.128-6.99.053-12.673-6.227-12.673-13.985 0-.364.012-.726.038-1.084H55c1.619 0 2.93 1.458 2.93 3.258z" fill="#E84135"></path><path d="M43.621 35.752v3.895c0 .433-.315.782-.703.782H28.934c-.388 0-.703-.349-.703-.782v-3.895c0-.431.315-.781.703-.781h13.984c.388 0 .703.35.703.781z" fill="#FFE5E3"></path><path d="M43.621 35.752v3.895c0 .433-.315.782-.703.782H37.82a14.553 14.553 0 01-2.489-5.458h7.587c.388 0 .703.35.703.781z" fill="#FF4D4D"></path><path d="M57.932 60.006v6.349c0 .43-.315.78-.704.78H14.404v-7.129h43.528z" fill="#FF8B00"></path><path d="M62.598 65.838v1.791c0 1.89-1.378 3.422-3.08 3.422H12.817c-1.701 0-3.079-1.532-3.079-3.422v-1.791c0-1.076.786-1.95 1.755-1.95h15.056c.26 0 .499.16.62.415l.923 1.93c.122.255.361.414.621.414h14.91c.26 0 .5-.16.622-.414l.922-1.93a.697.697 0 01.621-.414h15.057c.968 0 1.754.872 1.754 1.949z" fill="#FCC3C3"></path><path d="M62.599 65.837v1.792c0 1.89-1.379 3.422-3.08 3.422h-2.07c1.701 0 3.08-1.533 3.08-3.422v-1.792c0-1.076-.787-1.948-1.756-1.948h2.07c.97 0 1.755.872 1.755 1.948z" fill="#DCFDEE"></path><path d="M21.212 66.72h-6.094c-.388 0-.703-.35-.703-.782v-2.05h7.5v2.05c0 .432-.314.782-.703.782zM57.2 66.72h-6.094c-.388 0-.703-.35-.703-.782v-2.05h7.5v2.05c0 .432-.315.782-.703.782zM60.12 29.18c.09 7.723-5.546 14.114-12.497 14.166-6.992.053-12.674-6.227-12.674-13.984 0-7.318 5.059-13.323 11.503-13.934.583-.055 1.083.462 1.083 1.113v12.82l8.16-9.065a.936.936 0 011.472.063c1.811 2.39 2.915 5.463 2.953 8.82z" fill="#FF7EB8"></path><path d="M47.535 16.54v26.806c-6.951 0-12.586-6.26-12.586-13.984 0-7.318 5.059-13.324 11.503-13.934.583-.056 1.083.462 1.083 1.113z" fill="#FCC3C3"></path><path d="M60.122 29.361c0 7.725-5.636 13.985-12.587 13.985V29.361h12.587z" fill="#FFDBED"></path><path d="M58.799 11.79l-8.159 9.066V8.035c0-.65.5-1.168 1.084-1.113 2.66.252 5.084 1.423 7.014 3.227.45.42.477 1.18.061 1.642z" fill="#E84135"></path><path d="M32.62 41.197h-1.997c-.388 0-.703-.35-.703-.781 0-.432.315-.781.703-.781h1.997c.388 0 .703.35.703.78 0 .432-.315.782-.703.782zM36.838 44.094h-6.215c-.388 0-.703-.35-.703-.782 0-.431.315-.78.703-.78h6.215c.389 0 .703.349.703.78 0 .432-.314.782-.703.782z" fill="#FCC3C3"></path><path d="M60.844 63.106h-2.209V51.96c0-.431-.315-.781-.703-.781-.389 0-.703.35-.703.781v7.265H15.106V33.708c0-1.366 1-2.476 2.229-2.476H34.35c.368 3.252 1.692 6.257 3.82 8.605 2.508 2.768 5.83 4.29 9.364 4.29l.093-.001c3.55-.027 6.882-1.603 9.384-4.438.074-.084.146-.168.218-.253v8.134c0 .431.315.78.703.78.388 0 .703-.349.703-.78v-9.87a.86.86 0 00-.025-.198c1.473-2.455 2.248-5.333 2.213-8.334-.039-3.404-1.147-6.711-3.118-9.313a1.643 1.643 0 00-1.225-.667 1.63 1.63 0 00-1.283.555l-6.96 7.732V16.539c0-.53-.201-1.041-.553-1.4a1.6 1.6 0 00-1.292-.491c-3.305.313-6.368 1.982-8.625 4.7-2.271 2.734-3.522 6.29-3.522 10.012 0 .103.002.206.004.31H17.335c-2.004 0-3.635 1.81-3.635 4.037v29.399h-2.208c-1.356 0-2.458 1.225-2.458 2.73v1.792c0 2.317 1.697 4.203 3.782 4.203H59.52c2.085 0 3.782-1.886 3.782-4.203v-1.792c0-1.505-1.102-2.73-2.457-2.73zm-4.837-24.512c-2.092 2.37-4.83 3.755-7.77 3.946V30.141h11.157c-.168 3.173-1.35 6.145-3.387 8.453zm.184-17.747a.283.283 0 01.23-.1c.047.003.138.02.208.113 1.645 2.171 2.617 4.892 2.768 7.719H49.232l6.959-7.732zm-17.391-.44c2.019-2.43 4.757-3.923 7.711-4.203a.276.276 0 01.222.085c.037.038.098.12.098.25v26c-2.895-.187-5.595-1.52-7.67-3.81-2.264-2.498-3.51-5.825-3.51-9.369 0-3.329 1.119-6.508 3.149-8.952zm18.4 45.53h-6.094v-1.268h6.093l.001 1.268zm-35.987 0h-6.095V64.67h6.094l.001 1.268zm40.682 1.691c0 1.456-1.066 2.64-2.376 2.64H12.817c-1.31 0-2.377-1.184-2.377-2.64v-1.791c0-.644.472-1.168 1.052-1.168h2.22v1.268c0 .862.631 1.563 1.406 1.563h6.094c.776 0 1.407-.701 1.407-1.563V64.67h3.929l.922 1.93c.245.51.721.828 1.242.828h2.43c.388 0 .702-.35.702-.78 0-.432-.314-.782-.703-.782h-2.429l-.922-1.93c-.245-.51-.72-.829-1.242-.829H15.106v-2.32H57.23v2.32H45.787c-.52 0-.997.318-1.242.83l-.922 1.929h-8.53c-.389 0-.703.35-.703.781 0 .432.314.781.703.781h8.53c.521 0 .997-.317 1.242-.829l.922-1.93H49.7v1.27c0 .86.631 1.562 1.407 1.562h6.093c.776 0 1.407-.701 1.407-1.563V64.67h2.238c.58 0 1.05.524 1.05 1.168v1.791z" fill="#333C4E"></path><path d="M34.948 64.063h2.439c.388 0 .703-.35.703-.782 0-.431-.315-.78-.703-.78h-2.439c-.388 0-.703.349-.703.78 0 .432.315.782.703.782zM50.371 21.576c.087.04.178.06.269.06a.67.67 0 00.497-.23l8.16-9.065c.337-.375.519-.894.498-1.425a1.981 1.981 0 00-.605-1.367c-2.108-1.97-4.669-3.148-7.407-3.407a1.599 1.599 0 00-1.292.49c-.352.36-.554.87-.554 1.4v12.822c0 .316.171.6.434.722zm.972-13.543c0-.129.062-.211.099-.249a.276.276 0 01.222-.085c2.447.232 4.736 1.285 6.621 3.046.087.081.103.185.105.239a.357.357 0 01-.088.253l-6.959 7.731V8.033z" fill="#333C4E"></path><path d="M24.796 53.006c0-1.357-.994-2.461-2.215-2.461-1.221 0-2.215 1.104-2.215 2.46 0 .65.23 1.24.601 1.68-.371.44-.6 1.03-.6 1.68 0 .431.314.781.703.781.388 0 .703-.35.703-.781 0-.496.362-.899.808-.899.446 0 .809.403.809.899 0 .431.314.781.703.781.388 0 .703-.35.703-.781 0-.65-.23-1.24-.6-1.68.37-.44.6-1.03.6-1.68zm-2.215-.899c.446 0 .809.403.809.899 0 .495-.363.898-.809.898-.446 0-.808-.403-.808-.898 0-.496.362-.899.808-.899z" fill="#FCC3C3"></path><path d="M34.188 53.006c0-1.357-.994-2.461-2.215-2.461-1.221 0-2.215 1.104-2.215 2.46 0 .65.23 1.24.6 1.68-.37.44-.6 1.03-.6 1.68 0 .431.315.781.703.781.389 0 .703-.35.703-.781 0-.496.363-.899.809-.899.446 0 .808.403.808.899 0 .431.315.781.703.781.389 0 .704-.35.704-.781 0-.65-.23-1.24-.601-1.68a2.6 2.6 0 00.6-1.68zm-2.215-.899c.446 0 .808.403.808.899 0 .495-.362.898-.808.898-.446 0-.809-.403-.809-.898 0-.496.363-.899.809-.899z" fill="#FF7EB8"></path><path d="M43.456 53.006c0-1.357-.993-2.461-2.214-2.461s-2.215 1.104-2.215 2.46c0 .65.23 1.24.6 1.68-.37.44-.6 1.03-.6 1.68 0 .431.315.781.703.781.389 0 .703-.35.703-.781 0-.496.363-.899.809-.899.446 0 .808.403.808.899 0 .431.315.781.703.781.389 0 .703-.35.703-.781 0-.65-.229-1.24-.6-1.68a2.6 2.6 0 00.6-1.68zm-2.214-.899c.446 0 .808.403.808.899 0 .495-.362.898-.808.898-.446 0-.809-.403-.809-.898 0-.496.363-.899.809-.899z" fill="#FCC3C3"></path><path d="M52.75 53.006c0-1.357-.993-2.461-2.215-2.461-1.22 0-2.214 1.104-2.214 2.46 0 .65.229 1.24.6 1.68-.371.44-.6 1.03-.6 1.68 0 .431.314.781.703.781.388 0 .703-.35.703-.781 0-.496.363-.899.808-.899.446 0 .809.403.809.899 0 .431.315.781.703.781.388 0 .703-.35.703-.781 0-.65-.23-1.24-.6-1.68a2.6 2.6 0 00.6-1.68zm-2.215-.899c.446 0 .809.403.809.899 0 .495-.363.898-.809.898-.445 0-.808-.403-.808-.898 0-.496.363-.899.808-.899z" fill="#FF7EB8"></path><path d="M25.04 36.785c0-1.431-1.049-2.595-2.337-2.595-1.288 0-2.336 1.164-2.336 2.595 0 .706.256 1.346.669 1.815a2.74 2.74 0 00-.67 1.814c0 .432.316.782.704.782.389 0 .703-.35.703-.782 0-.57.417-1.033.93-1.033.513 0 .93.464.93 1.033 0 .432.315.782.703.782.389 0 .703-.35.703-.782a2.74 2.74 0 00-.668-1.814 2.74 2.74 0 00.668-1.815zm-2.337-1.033c.513 0 .93.464.93 1.033 0 .57-.417 1.034-.93 1.034-.513 0-.93-.464-.93-1.034 0-.57.417-1.033.93-1.033zM50.536 46.617h-27.13v-2.836c0-.431-.314-.781-.703-.781-.388 0-.703.35-.703.781v4.524c0 .431.315.781.703.781.389 0 .703-.35.703-.78v-.126h7.864v.125c0 .431.315.781.703.781.389 0 .703-.35.703-.78v-.126h7.875v.125c0 .431.315.781.703.781.389 0 .704-.35.704-.78v-.126h7.875v.125c0 .431.314.781.703.781.388 0 .703-.35.703-.78v-.907c0-.432-.315-.782-.703-.782z" fill="#F2926E"></path><path d="M63.758 58.193h-.457v-.508c0-.43-.315-.78-.703-.78-.389 0-.703.35-.703.78v.508h-.457c-.389 0-.703.35-.703.782 0 .431.314.78.703.78h.457v.509c0 .431.314.78.703.78.388 0 .703-.349.703-.78v-.508h.457c.389 0 .703-.35.703-.782 0-.43-.315-.78-.703-.78z" fill="#FF8B00"></path><path d="M8.366 58.193h-.457v-.508c0-.43-.315-.78-.703-.78-.389 0-.703.35-.703.78v.508h-.457c-.389 0-.703.35-.703.782 0 .431.314.78.703.78h.457v.509c0 .431.314.78.703.78.388 0 .703-.349.703-.78v-.508h.457c.388 0 .703-.35.703-.782 0-.43-.315-.78-.703-.78z" fill="#FF7EB8"></path><path d="M23.076 20.373h-.457v-.508c0-.431-.315-.781-.703-.781-.389 0-.704.35-.704.781v.508h-.457c-.388 0-.703.35-.703.781 0 .431.315.781.703.781h.457v.508c0 .432.315.781.704.781.388 0 .703-.35.703-.78v-.509h.457c.388 0 .703-.35.703-.78 0-.432-.315-.782-.703-.782z" fill="#FF8B00"></path><path d="M28.868 27.354a1.948 1.948 0 01-1.452-.667 2.4 2.4 0 01-.602-1.613 2.4 2.4 0 01.602-1.614c.8-.89 2.103-.89 2.904 0 .8.89.8 2.337 0 3.227-.4.445-.926.667-1.452.667zm0-3a.614.614 0 00-.458.211.757.757 0 00-.19.509c0 .192.068.372.19.508.253.28.663.28.915 0a.778.778 0 000-1.017.614.614 0 00-.457-.21zM64.603 54.6a1.947 1.947 0 01-1.452-.667c-.8-.89-.8-2.337 0-3.227.8-.89 2.103-.89 2.904 0 .8.89.8 2.337 0 3.227-.4.445-.926.667-1.452.667zm.955-1.22h.002-.002zm-.955-1.779a.614.614 0 00-.457.21.778.778 0 000 1.017c.252.28.662.28.915 0a.778.778 0 000-1.017.613.613 0 00-.458-.21z" fill="#FF5A88"></path></g><defs><linearGradient id="integrations_svg__paint0_linear" x1="72" y1="70.737" x2="25.787" y2="-3.635" gradientUnits="userSpaceOnUse"><stop stop-color="#E6034B"></stop><stop offset="1" stop-color="#FF9300"></stop></linearGradient><clipPath id="integrations_svg__clip0"><path fill="#fff" d="M0 0h72v80H0z"></path></clipPath></defs></svg>