<svg xmlns="http://www.w3.org/2000/svg" xmlns:xlink="http://www.w3.org/1999/xlink" viewBox="0 0 446.89 578.5"><defs><style>.cls-1{fill:url(#linear-gradient);}.cls-2{fill:url(#linear-gradient-2);}</style><linearGradient id="linear-gradient" x1="126.4" y1="94.78" x2="426.93" y2="472" gradientUnits="userSpaceOnUse"><stop offset="0" stop-color="#ff7b31"/><stop offset="1" stop-color="#d80e5d"/></linearGradient><linearGradient id="linear-gradient-2" x1="70.91" y1="185.84" x2="226.91" y2="457.15" xlink:href="#linear-gradient"/></defs><g id="Layer_2" data-name="Layer 2"><g id="Layer_1-2" data-name="Layer 1"><path class="cls-1" d="M446.89,0V355.05c0,123.41-100,223.45-223.44,223.45A223,223,0,0,1,48.59,494.17a102.09,102.09,0,0,0,174.86-71.61V223.44A223.27,223.27,0,0,1,446.89,0Z"/><path class="cls-2" d="M242.76,132.44a222.63,222.63,0,0,0-19.31,91V422.56A102.09,102.09,0,0,1,48.59,494.17,223.19,223.19,0,0,1,27,461.56s0,0,0,0A222.38,222.38,0,0,1,0,355.05c0-123.4,100-223.44,223.45-223.44C230,131.61,236.4,131.89,242.76,132.44Z"/></g></g></svg>