<svg width="80" height="80" viewBox="0 0 80 80" fill="currentColor" xmlns="http://www.w3.org/2000/svg" size="80"><g clip-path="url(#support_svg__clip0)"><path opacity="0.1" d="M77.666 39.34c-1.932-15.524-12.738.42-15.66-9.2-1.773-5.832 5.557-12.998 3.07-19.385-2.078-5.338-7.868-6.772-13.339-5.7-4.404.863-8.322 5.412-12.952 4.653-4.9-.805-6.432-7.257-11.307-8.955C14.954-3.611 9.08 12.032 5.96 21.049c-3.966 11.458-7.734 26.43 4.441 34.047 12.822 8.02 21.443-3.288 29.668 12.837 16.221 31.8 40.3-6.87 37.597-28.593z" fill="url(#support_svg__paint0_linear)"></path><g opacity="0.1" fill="#333C4E"><path opacity="0.1" d="M70.466 43.906c0-12.175-7.144-22.683-17.468-27.562-1.847-.873-3.973.495-3.973 2.539 0 1.076.616 2.062 1.59 2.521 8.428 3.984 14.259 12.56 14.259 22.502 0 12.336-8.98 22.572-20.76 24.533l.437-.436c1.084-1.084 1.117-2.89.013-3.954a2.734 2.734 0 00-3.83.036L35.4 69.421a2.734 2.734 0 000 3.867l5.335 5.336c.534.534 1.234.8 1.934.8.707 0 1.414-.272 1.95-.817 1.06-1.079 1.003-2.83-.066-3.9l-.591-.591c14.954-1.942 26.505-14.727 26.505-30.21zM29.386 66.408c-8.43-3.983-14.26-12.56-14.26-22.502 0-12.336 8.98-22.572 20.76-24.532l-.438.436c-1.069 1.07-1.126 2.822-.066 3.9a2.726 2.726 0 001.95.818c.7 0 1.4-.267 1.934-.8l5.336-5.337a2.734 2.734 0 000-3.867L39.265 9.19a2.734 2.734 0 00-3.83-.037c-1.104 1.063-1.07 2.87.013 3.955l.59.59C21.085 15.638 9.534 28.424 9.534 43.907c0 12.175 7.144 22.682 17.468 27.561 1.847.873 3.973-.495 3.973-2.538a2.787 2.787 0 00-1.59-2.522z"></path><path opacity="0.1" d="M36.5 51.4a2.53 2.53 0 00-2.53-2.53h-2.622c1.616-1.674 3.157-3.558 3.842-5.215.955-2.31.732-4.875-.596-6.86-1.238-1.852-3.248-2.914-5.515-2.914a6.81 6.81 0 00-6.802 6.803 2.53 2.53 0 005.06 0c0-.96.782-1.742 1.742-1.742.573 0 1.013.224 1.31.666.38.57.428 1.38.124 2.114-.79 1.91-4.738 5.656-7.29 7.706a2.53 2.53 0 001.584 4.503h9.163a2.53 2.53 0 002.53-2.53zM43.519 36.456a2.53 2.53 0 00-5.061 0v6.545a2.53 2.53 0 002.531 2.53h5.375v5.825a2.53 2.53 0 005.06 0V40.038a4.957 4.957 0 10-.94-5.548 2.53 2.53 0 00-4.121 1.966v4.016H43.52v-4.016z"></path></g><path d="M70.466 40c0-12.175-7.144-22.683-17.468-27.562-1.847-.873-3.973.495-3.973 2.538 0 1.077.616 2.062 1.59 2.522C59.043 21.481 64.874 30.058 64.874 40c0 12.336-8.98 22.572-20.76 24.533l.437-.436c1.084-1.084 1.117-2.891.013-3.954a2.734 2.734 0 00-3.83.036L35.4 65.515a2.734 2.734 0 000 3.867l5.335 5.335c.534.534 1.234.801 1.934.801.707 0 1.414-.272 1.95-.817 1.06-1.079 1.003-2.83-.066-3.9l-.591-.591C58.915 68.268 70.466 55.482 70.466 40z" fill="#FF4D4D"></path><path d="M44.601 10.618l-5.335-5.335a2.734 2.734 0 00-3.83-.037c-1.104 1.063-1.07 2.87.013 3.954l.59.59C21.085 11.732 9.534 24.518 9.534 40c0 12.175 7.144 22.683 17.468 27.562 1.847.873 3.973-.495 3.973-2.538a2.787 2.787 0 00-1.59-2.522C20.958 58.518 15.128 49.942 15.128 40c0-12.336 8.978-22.572 20.758-24.533l-.436.437c-1.07 1.07-1.127 2.821-.067 3.9a2.727 2.727 0 001.95.818c.7 0 1.4-.267 1.934-.801l5.336-5.336a2.734 2.734 0 000-3.867z" fill="#FC8585"></path><path d="M42.668 76.3c-.94 0-1.822-.366-2.486-1.03l-5.336-5.336a3.491 3.491 0 01-1.03-2.486c0-.939.366-1.822 1.03-2.485l5.336-5.336a3.533 3.533 0 014.924-.047 3.45 3.45 0 011.053 2.475c.004.446-.075.887-.228 1.3a24.137 24.137 0 0012.387-7.706A24.09 24.09 0 0064.092 40c0-4.654-1.329-9.171-3.843-13.061a24.147 24.147 0 00-9.969-8.734 3.582 3.582 0 01-.367-6.26 3.535 3.535 0 013.42-.213A31.322 31.322 0 0166.26 23.059 31.133 31.133 0 0171.247 40a31.205 31.205 0 01-7.841 20.7 31.226 31.226 0 01-17.877 10.058c.95 1.381.838 3.278-.354 4.49a3.489 3.489 0 01-2.507 1.051zm0-16.137a1.95 1.95 0 00-1.381.569l-5.336 5.335a1.94 1.94 0 00-.572 1.381c0 .522.203 1.013.572 1.381l5.336 5.336c.369.369.86.572 1.38.572a1.94 1.94 0 001.394-.584c.748-.762.72-2.017-.062-2.8l-.59-.59a.78.78 0 01.451-1.328 29.648 29.648 0 0018.376-9.77A29.644 29.644 0 0069.685 40c0-5.734-1.639-11.3-4.738-16.093a29.76 29.76 0 00-12.282-10.763 1.955 1.955 0 00-1.916.122 2.015 2.015 0 00-.943 1.71c0 .775.449 1.488 1.142 1.816a25.706 25.706 0 0110.613 9.299A25.563 25.563 0 0165.655 40a25.655 25.655 0 01-21.412 25.303.781.781 0 01-.68-1.323l.435-.436a2.07 2.07 0 00.599-1.474 1.9 1.9 0 00-.575-1.365 1.945 1.945 0 00-1.353-.542zM28.183 68.61a3.541 3.541 0 01-1.515-.342A31.322 31.322 0 0113.74 56.941 31.132 31.132 0 018.753 40a31.204 31.204 0 017.841-20.7A31.227 31.227 0 0134.474 9.24a3.653 3.653 0 01-.633-2.083 3.45 3.45 0 011.053-2.475 3.533 3.533 0 014.924.047l5.336 5.336a3.491 3.491 0 011.03 2.486c0 .939-.366 1.822-1.03 2.486l-5.336 5.335a3.492 3.492 0 01-2.486 1.03 3.49 3.49 0 01-2.507-1.051c-.979-.996-1.23-2.451-.763-3.705a24.137 24.137 0 00-12.38 7.704A24.091 24.091 0 0015.908 40c0 4.654 1.329 9.17 3.844 13.061a24.148 24.148 0 009.968 8.734 3.582 3.582 0 01-1.537 6.815zm9.149-63.343c-.49 0-.978.18-1.354.542a1.9 1.9 0 00-.574 1.364c-.006.552.212 1.09.598 1.475l.59.59a.78.78 0 01-.452 1.327 29.648 29.648 0 00-18.376 9.77A29.646 29.646 0 0010.316 40c0 5.734 1.638 11.3 4.737 16.093a29.76 29.76 0 0012.282 10.763 1.955 1.955 0 001.916-.122c.59-.374.943-1.013.943-1.71 0-.775-.448-1.488-1.142-1.816a25.707 25.707 0 01-10.613-9.299A25.565 25.565 0 0114.345 40c0-6.11 2.184-12.028 6.15-16.665a25.67 25.67 0 0115.262-8.638.783.783 0 01.68 1.323l-.436.436c-.782.783-.81 2.04-.062 2.8.37.377.865.585 1.393.585.522 0 1.013-.204 1.382-.572l5.335-5.336a1.94 1.94 0 00.572-1.381 1.94 1.94 0 00-.572-1.381l-5.335-5.336a1.95 1.95 0 00-1.382-.568z" fill="#333C4E"></path><path d="M33.97 44.965h-2.622c1.617-1.676 3.157-3.56 3.842-5.217.955-2.31.732-4.874-.595-6.859-1.239-1.852-3.249-2.914-5.515-2.914a6.81 6.81 0 00-6.802 6.802 2.53 2.53 0 005.06 0c0-.96.781-1.742 1.742-1.742.572 0 1.013.225 1.309.667.38.57.428 1.38.125 2.114-.79 1.91-4.739 5.656-7.29 7.706a2.53 2.53 0 001.584 4.503h9.163a2.53 2.53 0 000-5.06zM51.425 32.55v14.9a2.53 2.53 0 01-5.06 0v-5.825h-5.376a2.53 2.53 0 01-2.531-2.53V32.55a2.53 2.53 0 015.06 0v4.016h2.846V32.55a2.53 2.53 0 015.061 0z" fill="#FF9D33"></path><path d="M51.425 32.93v6.91a4.942 4.942 0 01-1.403-3.456c0-1.343.534-2.562 1.403-3.454z" fill="#FE2C8F"></path><path d="M33.97 50.806h-2.296a.781.781 0 110-1.563h2.297a1.75 1.75 0 001.748-1.748 1.75 1.75 0 00-1.748-1.749h-2.623a.782.782 0 01-.563-1.324c1.89-1.957 3.129-3.63 3.683-4.972.855-2.068.66-4.358-.523-6.126-1.091-1.632-2.864-2.567-4.866-2.567-3.32 0-6.02 2.7-6.02 6.02a1.75 1.75 0 001.748 1.75 1.75 1.75 0 001.75-1.75 2.526 2.526 0 012.522-2.523c.838 0 1.515.35 1.959 1.014.523.784.599 1.874.197 2.847-.89 2.152-5.086 6.059-7.522 8.016a1.75 1.75 0 001.095 3.113h2.295a.781.781 0 110 1.562h-2.296a3.316 3.316 0 01-3.123-2.212 3.316 3.316 0 011.05-3.681c2.88-2.314 6.397-5.8 7.057-7.395.202-.49.182-1.031-.052-1.382-.106-.158-.267-.32-.66-.32-.53 0-.96.432-.96.961a3.315 3.315 0 01-3.312 3.312 3.315 3.315 0 01-3.31-3.312c0-4.181 3.4-7.583 7.582-7.583 2.532 0 4.779 1.189 6.165 3.261 1.473 2.202 1.722 5.04.668 7.592-.494 1.195-1.428 2.582-2.785 4.137h.843a3.315 3.315 0 013.312 3.31 3.315 3.315 0 01-3.311 3.312z" fill="#333C4E"></path><path d="M54.978 37.635a4.957 4.957 0 100-9.914 4.957 4.957 0 000 9.914z" fill="#FF4D4D"></path><path d="M54.978 26.94a5.737 5.737 0 00-4.779 2.566 3.315 3.315 0 00-4.617 3.044v3.234h-1.282V32.55a3.315 3.315 0 00-3.311-3.311 3.315 3.315 0 00-3.311 3.31v6.546a3.315 3.315 0 003.31 3.312h4.595v5.043a3.315 3.315 0 003.311 3.311 3.315 3.315 0 003.311-3.311v-6.795a.781.781 0 10-1.562 0v6.795a1.75 1.75 0 01-1.749 1.748 1.75 1.75 0 01-1.748-1.748v-5.825a.781.781 0 00-.782-.78H40.99a1.75 1.75 0 01-1.749-1.75V32.55a1.75 1.75 0 011.749-1.749 1.75 1.75 0 011.748 1.749v4.015c0 .432.35.781.782.781h2.845c.432 0 .782-.35.782-.78V32.55a1.75 1.75 0 012.372-1.633 5.713 5.713 0 00-.278 1.76 5.745 5.745 0 005.739 5.74 5.745 5.745 0 005.738-5.74 5.745 5.745 0 00-5.739-5.738zm0 9.913a4.18 4.18 0 01-4.175-4.175 4.18 4.18 0 014.175-4.176 4.18 4.18 0 014.176 4.176 4.18 4.18 0 01-4.176 4.175z" fill="#333C4E"></path><path d="M56.196 30.395a.69.69 0 00-.69.69v.903H54.45v-.904a.69.69 0 10-1.38 0v3.187a.69.69 0 101.38 0v-.903h1.055v.903a.69.69 0 101.38 0v-3.187a.69.69 0 00-.69-.69z" fill="#fff"></path><path d="M70.882 17.6c-.2 0-.4-.076-.552-.23l-.932-.931-.932.932a.78.78 0 11-1.105-1.105l1.484-1.484a.781.781 0 011.105 0l1.484 1.484a.781.781 0 01-.552 1.334z" fill="#FF7875"></path><path d="M66.429 12.856c-.2 0-.4-.076-.552-.229l-.932-.932-.932.932a.781.781 0 11-1.105-1.104l1.484-1.485a.78.78 0 011.105 0l1.484 1.485a.781.781 0 01-.552 1.333zM8.412 62.001c-.58 0-1.16-.22-1.602-.662a2.268 2.268 0 010-3.204 2.268 2.268 0 013.204 0c.884.883.884 2.32 0 3.204A2.258 2.258 0 018.412 62zm0-2.967a.702.702 0 00-.497 1.2.704.704 0 00.994-.995.702.702 0 00-.497-.205zM69.398 64.267c-.58 0-1.16-.221-1.602-.663a2.268 2.268 0 010-3.204 2.268 2.268 0 013.204 0c.883.883.883 2.32 0 3.204a2.258 2.258 0 01-1.602.663zm0-2.968a.701.701 0 00-.497 1.2.704.704 0 00.994-.994.701.701 0 00-.497-.206zM16.144 66.138c-.2 0-.4-.076-.552-.229l-.932-.931-.932.931a.781.781 0 11-1.105-1.104l1.484-1.485a.781.781 0 011.105 0l1.484 1.485a.781.781 0 01-.552 1.333z" fill="#FF4D4D"></path></g><defs><linearGradient id="support_svg__paint0_linear" x1="7.137" y1="15.755" x2="70.075" y2="64.248" gradientUnits="userSpaceOnUse"><stop stop-color="#FF8F80"></stop><stop offset="1" stop-color="#DF084C"></stop></linearGradient><clipPath id="support_svg__clip0"><path fill="#fff" d="M0 0h80v80H0z"></path></clipPath></defs></svg>