<svg width="72" height="80" viewBox="0 0 72 80" fill="currentColor" xmlns="http://www.w3.org/2000/svg" size="80"><g clip-path="url(#weekly-analysis_svg__clip0)"><path d="M65.427 25.923c-2.09-2.705-3.466-5.994-4.109-9.486-.545-2.962-1.7-5.532-3.51-7.542-8.265-9.183-27.037-3.214-41.93 13.332C.989 38.774-4.384 59.631 3.88 68.815c3.929 4.365 10.232 5.305 17.363 3.314 4.142-1.156 8.512-.67 12.416 1.255a24.906 24.906 0 0010.648 2.588c14.861.241 27.246-12.898 27.68-29.405.209-7.892-2.299-15.129-6.56-20.644z" fill="url(#weekly-analysis_svg__paint0_linear)"></path><path opacity="0.1" d="M57.923 29.026l.082-.002H32.15c-2.33 0-4.219 2.098-4.219 4.687v10.064c-1.524-2.418-4.048-4-6.907-4-4.655 0-8.429 4.193-8.429 9.365 0 5.173 3.774 9.366 8.43 9.366 2.858 0 5.382-1.583 6.906-4v8.819h-7.744c-.389 0-.703.35-.703.781v6.957c0 2.589 1.888 4.688 4.218 4.688h25.856-.009.02c2.328 0 4.218-2.1 4.218-4.688V38h7.578c.389 0 .704-.35.704-.78v-3.508c0-2.562-1.85-4.642-4.146-4.686zM32.406 25.37h14.148c.399 0 .721-.369.703-.811-.37-8.91-6.806-16.06-14.824-16.47-.399-.021-.73.338-.73.78v15.72c0 .431.314.78.703.78z" fill="#333C4E"></path><path d="M62.068 33.94v-3.508c0-2.59-1.889-4.688-4.219-4.688h-7.237v8.977h10.753c.388 0 .703-.35.703-.782z" fill="#FF9D33"></path><path d="M62.069 30.432v2.32c0-2.588-1.889-4.688-4.22-4.688h-7.236v-2.32h7.237c2.33 0 4.219 2.099 4.219 4.688z" fill="#FF8B00"></path><path d="M58.005 25.742c-2.33 0-4.219 2.099-4.219 4.688V67.78c0 2.59-1.89 4.688-4.218 4.688H27.93v-42.04c0-2.588 1.889-4.687 4.219-4.687h25.855z" fill="#fff"></path><path d="M46.733 37.378H40.8c-.388 0-.703-.35-.703-.782v-6.592c0-.431.315-.781.703-.781h5.933c.388 0 .703.35.703.781v6.592c0 .432-.315.782-.703.782z" fill="#EBEBFF"></path><path d="M43.89 31.907c-.38 9.18-7.2 16.49-15.554 16.49-.135 0-.27-.001-.405-.006V31.096h15.256c.399 0 .722.369.704.81z" fill="#FEE"></path><path d="M44.774 66.5c2.836 0 5.135-2.554 5.135-5.705 0-3.151-2.299-5.705-5.135-5.705s-5.134 2.554-5.134 5.705c0 3.15 2.298 5.705 5.134 5.705z" fill="#EBEBFF"></path><path d="M45.339 67.783v-6.957c0-.431-.315-.781-.703-.781h-24.45c-.387 0-.702.35-.702.781v6.957c0 2.589 1.888 4.688 4.218 4.688h25.856c-2.33 0-4.219-2.099-4.219-4.688z" fill="#FF9D33"></path><path d="M44.071 53.478H32.188c-.388 0-.703-.35-.703-.78 0-.432.315-.782.703-.782h11.883c.389 0 .703.35.703.781 0 .431-.314.781-.703.781z" fill="#F8C1D2"></path><path d="M34.79 49.248h-2.602c-.388 0-.703-.35-.703-.781 0-.432.315-.782.703-.782h2.602c.388 0 .703.35.703.782 0 .431-.315.78-.703.78z" fill="#FF9D33"></path><path d="M49.134 56.623H32.188c-.388 0-.703-.35-.703-.781 0-.432.315-.782.703-.782h16.946c.388 0 .703.35.703.782 0 .431-.315.78-.703.78z" fill="#F8C1D2"></path><path d="M47.272 37.803c-1.289 0-2.337-1.165-2.337-2.596s1.048-2.596 2.337-2.596c1.288 0 2.336 1.165 2.336 2.596s-1.048 2.596-2.336 2.596zm0-3.63c-.513 0-.93.464-.93 1.034 0 .57.417 1.033.93 1.033.512 0 .93-.463.93-1.033 0-.57-.418-1.033-.93-1.033z" fill="#FF9300"></path><path d="M48.905 39.617c-.389 0-.703-.35-.703-.781 0-.57-.418-1.033-.93-1.033-.513 0-.93.463-.93 1.033 0 .431-.315.781-.704.781-.388 0-.703-.35-.703-.781 0-1.431 1.048-2.596 2.337-2.596 1.288 0 2.336 1.165 2.336 2.596 0 .431-.315.781-.703.781z" fill="#FF9300"></path><path d="M43.188 28.558c.398 0 .721.368.703.81-.381 9.18-7.2 16.491-15.554 16.491-8.6 0-15.57-7.745-15.57-17.301 0-9.283 6.58-16.858 14.84-17.282.398-.02.73.339.73.782v16.5h14.85z" fill="#FF4D4D"></path><path d="M46.554 22.089H32.406c-.389 0-.703-.35-.703-.781V5.588c0-.442.331-.801.73-.78 8.018.41 14.454 7.56 14.824 16.47.019.442-.304.81-.703.81z" fill="#EC5282"></path><path d="M21.024 55.227c4.655 0 8.43-4.193 8.43-9.365 0-5.173-3.774-9.366-8.43-9.366-4.655 0-8.429 4.193-8.429 9.365 0 5.173 3.774 9.366 8.43 9.366z" fill="#FF9D33"></path><path d="M58.057 24.969c-.018-.001-.035-.006-.053-.006H32.15c-1.179 0-2.261.464-3.11 1.235V12.059c0-.425-.159-.838-.436-1.132a1.329 1.329 0 00-1.03-.43c-8.697.446-15.51 8.38-15.51 18.062 0 3.67.99 7.086 2.686 9.94-1.757 1.85-2.857 4.465-2.857 7.362 0 5.595 4.096 10.147 9.132 10.147 2.393 0 4.573-1.03 6.203-2.71v6.747c0 .432.316.782.704.782h16.704v6.957c0 1.528.568 2.912 1.48 3.906H23.703c-1.939 0-3.516-1.753-3.516-3.906v-6.957h2.964c.388 0 .703-.35.703-.782 0-.431-.315-.78-.703-.78h-2.964c-.775 0-1.406.7-1.406 1.562v6.957c0 3.015 2.208 5.468 4.922 5.468H49.567c2.714 0 4.922-2.453 4.922-5.468V40.035c0-.431-.315-.781-.703-.781-.389 0-.703.35-.703.781v27.748c0 2.154-1.578 3.907-3.516 3.907h-.01c-1.938 0-3.516-1.753-3.516-3.907v-6.956c0-.862-.63-1.563-1.406-1.563H28.634v-7.802a10.844 10.844 0 001.5-4.93c7.88-.958 14.086-8.135 14.46-17.126a1.662 1.662 0 00-.387-1.143 1.352 1.352 0 00-1.02-.485H29.575c.642-.77 1.558-1.252 2.574-1.252h22.414c-.913.993-1.48 2.377-1.48 3.906v4.29c0 .432.315.782.703.782l.015-.002h7.564c.776 0 1.406-.7 1.406-1.562v-3.508c0-2.938-2.096-5.342-4.714-5.463zM21.024 54.445c-4.26 0-7.726-3.85-7.726-8.584s3.466-8.584 7.726-8.584 7.726 3.85 7.726 8.584c0 4.733-3.466 8.584-7.726 8.584zm22.164-25.11c-.339 8.16-5.938 14.685-13.07 15.627-.41-5.175-4.331-9.248-9.094-9.248-1.92 0-3.703.663-5.175 1.793-1.503-2.581-2.38-5.652-2.38-8.948 0-8.845 6.224-16.093 14.164-16.5v16.5c0 .432.315.781.703.781h14.851l.001-.006zm18.177 4.605H54.49v-3.508c0-2.125 1.535-3.858 3.438-3.904 1.903.046 3.438 1.779 3.438 3.904v3.508z" fill="#333C4E"></path><path d="M30.628 66.243l.909-1.01.909 1.01a.667.667 0 00.497.23c.18 0 .36-.077.497-.23a.843.843 0 000-1.104l-1.406-1.563a.655.655 0 00-.994 0l-1.406 1.563a.843.843 0 000 1.105c.274.305.72.305.994 0zM32.406 22.87h14.148c.383 0 .755-.177 1.02-.485.262-.306.403-.723.386-1.144-.188-4.503-1.874-8.743-4.75-11.938-2.875-3.194-6.691-5.068-10.745-5.276a1.333 1.333 0 00-1.03.429A1.662 1.662 0 0031 5.589v15.718c0 .862.63 1.563 1.406 1.563zm9.81-12.462c2.627 2.919 4.168 6.792 4.339 10.9H32.406L32.4 5.587c3.703.19 7.189 1.901 9.816 4.82z" fill="#333C4E"></path><path d="M21.024 52.483c3.292 0 5.96-2.965 5.96-6.622 0-3.658-2.668-6.623-5.96-6.623s-5.96 2.965-5.96 6.623c0 3.657 2.668 6.622 5.96 6.622z" fill="#fff"></path><path d="M21.84 49.45h-2.25c-.388 0-.703-.35-.703-.782 0-.431.315-.78.703-.78h2.25c.309 0 .56-.28.56-.623 0-.343-.251-.622-.56-.622H20.21c-1.085 0-1.967-.98-1.967-2.185s.882-2.185 1.966-2.185h2.25c.389 0 .703.35.703.781 0 .432-.315.782-.703.782h-2.25c-.308 0-.56.279-.56.622 0 .343.252.622.56.622h1.632c1.084 0 1.966.98 1.966 2.185s-.882 2.185-1.966 2.185z" fill="#FF7300"></path><path d="M21.024 50.494c-.388 0-.703-.35-.703-.782v-7.704c0-.432.315-.781.703-.781.388 0 .703.35.703.78v7.706c0 .431-.315.78-.703.78z" fill="#FF7300"></path><path d="M25.067 29.236H16.98c-.388 0-.703-.35-.703-.78 0-.432.315-.782.703-.782h8.086c.388 0 .703.35.703.781 0 .432-.315.782-.703.782zM18.739 26.076H16.98c-.388 0-.703-.35-.703-.78 0-.432.315-.782.703-.782h1.758c.388 0 .703.35.703.781 0 .431-.315.781-.703.781zM21.653 26.076h-.492c-.389 0-.704-.35-.704-.78 0-.432.315-.782.704-.782h.492c.388 0 .703.35.703.781 0 .431-.315.781-.703.781zM39.292 19.322h-1.757c-.389 0-.703-.35-.703-.781 0-.431.314-.781.703-.781h1.758c.388 0 .703.35.703.781 0 .431-.315.781-.704.781zM42.206 19.322h-.492c-.388 0-.703-.35-.703-.781 0-.431.315-.781.703-.781h.492c.389 0 .703.35.703.781 0 .431-.314.781-.703.781z" fill="#FFF3EE"></path><path d="M48.905 43.138c.434 0 .786-.391.786-.874 0-.482-.352-.873-.786-.873-.434 0-.786.39-.786.873s.352.874.786.874zM48.905 45.78c.434 0 .786-.391.786-.873 0-.483-.352-.874-.786-.874-.434 0-.786.391-.786.873 0 .483.352.874.786.874zM49.69 47.547c0 .483-.351.874-.785.874-.434 0-.786-.391-.786-.873 0-.483.352-.874.786-.874.434 0 .786.391.786.873z" fill="#FF9D33"></path><path d="M51.996 21.154a.667.667 0 01-.498-.229.843.843 0 010-1.104l1.407-1.563a.654.654 0 01.994 0c.275.305.275.8 0 1.105l-1.406 1.562a.667.667 0 01-.497.23zM13.569 65.691a.667.667 0 01-.498-.229.843.843 0 010-1.104l1.407-1.563a.654.654 0 01.994 0c.275.305.275.8 0 1.105l-1.406 1.562a.667.667 0 01-.497.23z" fill="#EC5282"></path><path d="M63.291 46.672a.667.667 0 01-.497-.23l-.909-1.01-.909 1.01a.654.654 0 01-.994 0 .844.844 0 010-1.104l1.406-1.562a.654.654 0 01.994 0l1.407 1.562c.274.305.274.8 0 1.105a.667.667 0 01-.498.229z" fill="#FF6C6C"></path><path d="M11.521 40.443a.667.667 0 01-.497-.229l-.909-1.01-.91 1.01a.654.654 0 01-.993 0 .844.844 0 010-1.104l1.406-1.563a.655.655 0 01.994 0l1.406 1.563c.275.305.275.8 0 1.104a.667.667 0 01-.497.23zM25.222 7.78a.667.667 0 01-.497-.23l-.909-1.01-.909 1.01a.654.654 0 01-.994 0 .843.843 0 010-1.104l1.406-1.563a.654.654 0 01.994 0l1.407 1.563c.274.305.274.8 0 1.104a.667.667 0 01-.498.23z" fill="#FF9D33"></path></g><defs><linearGradient id="weekly-analysis_svg__paint0_linear" x1="1.458" y1="8.343" x2="82.688" y2="76.66" gradientUnits="userSpaceOnUse"><stop offset="0.002" stop-color="#FFC599"></stop><stop offset="0.992" stop-color="#FFE8DC" stop-opacity="0"></stop></linearGradient><clipPath id="weekly-analysis_svg__clip0"><path fill="#fff" d="M0 0h72v80H0z"></path></clipPath></defs></svg>