<svg width="80" height="80" viewBox="0 0 80 80" fill="currentColor" xmlns="http://www.w3.org/2000/svg" size="80"><g clip-path="url(#customized-branding_svg__clip0)"><path d="M44.78.76C30.038 5.097 32.995 15.384 31.346 26.783c-2.058 14.227-10.953 6.932-21.172 14.615C-7.49 54.68 5.342 83.997 27.28 79.544c11.649-2.364 14.029-10.952 18.78-20.128 6.146-11.871 16.337-8.635 25.48-16.384C90.077 27.316 65.693-5.39 44.78.76z" fill="url(#customized-branding_svg__paint0_linear)"></path><path d="M3.756 34.688a.781.781 0 01-.781-.782.938.938 0 00-.938-.937.781.781 0 110-1.563c.517 0 .938-.42.938-.937a.781.781 0 111.562 0c0 .517.42.937.938.937a.781.781 0 110 1.563.938.938 0 00-.938.937c0 .432-.35.782-.78.782zM65.938 14.063a.781.781 0 01-.782-.782.938.938 0 00-.937-.937.781.781 0 110-1.563c.517 0 .937-.42.937-.937a.781.781 0 111.563 0c0 .517.42.937.937.937a.781.781 0 110 1.563.938.938 0 00-.937.937c0 .432-.35.782-.781.782z" fill="#E6034B"></path><path d="M71.719 29.531c-.2 0-.4-.076-.553-.229l-1.718-1.718a.781.781 0 010-1.105l1.718-1.719a.781.781 0 011.105 0l1.719 1.719c.305.305.305.8 0 1.105l-1.719 1.718a.779.779 0 01-.552.23zm-.614-2.5l.614.614.614-.614-.614-.614-.614.614z" fill="#FF6C6C"></path><path d="M8.399 59.375c-.2 0-.4-.076-.553-.229l-1.718-1.719a.781.781 0 010-1.105l1.718-1.718a.781.781 0 011.105 0l1.719 1.718c.305.306.305.8 0 1.105l-1.719 1.72a.78.78 0 01-.552.228zm-.614-2.5l.614.614.614-.614-.614-.614-.614.614z" fill="#FF4081"></path><path d="M69.69 54.066a2.035 2.035 0 01-2.034-2.033c0-1.121.912-2.033 2.033-2.033 1.122 0 2.034.912 2.034 2.033a2.036 2.036 0 01-2.034 2.033zm0-2.504a.471.471 0 100 .943.471.471 0 000-.943z" fill="#FF6C6C"></path><path d="M63.542 60.29a11.03 11.03 0 01-.35-3.793l.899-9.06c.305-3.694-.259-7.395-1.894-10.722-4.226-8.596-3.257-9.22-3.388-17.75a3.155 3.155 0 10-6.31 0c0 34.692.064 32.146-.15 33.163v4.543a6.95 6.95 0 01-6.942 6.942H28.134a24.514 24.514 0 0010.497 8.33l.078.033c3.255 1.374 5.523 4.314 6.13 7.718a38.999 38.999 0 0021.322-9.786l-2.619-9.617z" fill="#F9D6BF"></path><path fill-rule="evenodd" clip-rule="evenodd" d="M62.035 60.701a12.589 12.589 0 01-.4-4.331l.002-.014.897-9.06c.283-3.45-.247-6.857-1.74-9.891-2.13-4.336-3.039-6.828-3.376-9.386-.165-1.259-.187-2.493-.18-3.898 0-.388.005-.788.009-1.209.011-1.123.023-2.387 0-3.924v-.024a1.593 1.593 0 10-3.186 0c0 8.166.003 14.27.006 18.843.003 5.14.005 8.345 0 10.372-.006 1.899-.018 2.806-.044 3.3a4.21 4.21 0 01-.112.833v4.36c0 4.69-3.813 8.503-8.504 8.503H31.46A22.931 22.931 0 0039.23 70.5l.008.003.008.004h.002l.003.002.018.007.058.024c3.27 1.385 5.667 4.136 6.69 7.406a37.433 37.433 0 0018.38-8.566L62.035 60.7zm4.126 9.207a38.999 38.999 0 01-21.322 9.786c-.607-3.404-2.875-6.344-6.13-7.718a1.975 1.975 0 00-.046-.02l-.032-.013a24.502 24.502 0 01-10.497-8.33h17.273a6.95 6.95 0 006.942-6.942v-4.543c.019-.09.036-.152.05-.215.153-.644.1-1.336.1-32.949a3.156 3.156 0 016.31 0c.024 1.558.011 2.853 0 3.98-.05 5.045-.066 6.745 3.388 13.771 1.635 3.326 2.199 7.028 1.894 10.723l-.898 9.06a11.03 11.03 0 00.35 3.793l2.618 9.617z" fill="#48465B"></path><path d="M18.75 17.578l-3.298-2.55a3.682 3.682 0 00-5.19.198 3.684 3.684 0 00.198 5.19l8.29 7.71V17.577z" fill="#F9D6BF"></path><path fill-rule="evenodd" clip-rule="evenodd" d="M10.46 20.416a3.684 3.684 0 01-.198-5.19 3.682 3.682 0 015.19-.197l3.298 2.55v10.546l-8.29-7.709zm6.728 4.123l-5.665-5.268h-.001a2.121 2.121 0 01-.114-2.983 2.12 2.12 0 012.982-.113l.05.047 2.748 2.123v6.194z" fill="#333C4E"></path><path opacity="0.1" d="M17.773 65.598a3.07 3.07 0 003.071 3.07h30.373a3.07 3.07 0 003.07-3.07V7.785a3.07 3.07 0 00-3.07-3.07H20.844a3.07 3.07 0 00-3.07 3.07v57.813z" fill="#333C4E"></path><path d="M54.288 3.807V61.62a3.07 3.07 0 01-3.071 3.07H20.844a3.07 3.07 0 01-3.07-3.07V3.807a3.07 3.07 0 013.07-3.07h3.828l11.211 1.474L47.23.738h3.988a3.07 3.07 0 013.07 3.07z" fill="#FF4D4D"></path><path d="M54.288 36.935V3.807a3.07 3.07 0 00-3.071-3.07H47.23L35.883 2.212 24.831.738h-3.987a3.07 3.07 0 00-3.07 3.07v33.127h36.514z" fill="#FFC398"></path><path d="M45.984 4.864L47.229.737H24.832l1.246 4.127a1.474 1.474 0 001.41 1.047h17.086c.65 0 1.223-.425 1.41-1.047z" fill="#FFAB66"></path><path d="M29.548 4.04a.715.715 0 100-1.431.715.715 0 000 1.43zM31.953 4.04a.715.715 0 100-1.431.715.715 0 000 1.43z" fill="#D9004E"></path><path d="M42.013 4.04h-5.482a.687.687 0 110-1.374h5.482a.687.687 0 010 1.373z" fill="#FF8B00"></path><path d="M37.75 17.845h-3.733v-2.767a1.867 1.867 0 113.733 0v2.767z" fill="#E00439"></path><path d="M49.718 29.52c-.428-7.188-6.392-12.886-13.688-12.886S22.77 22.332 22.343 29.52h27.375z" fill="#fff"></path><path d="M49.66 31.108H22.4a1.216 1.216 0 010-2.431h27.26a1.216 1.216 0 010 2.431z" fill="#EBEBFF"></path><path d="M37.271 44.243H25.996a.737.737 0 110-1.473H37.27a.737.737 0 010 1.473z" fill="#FFCADD"></path><path d="M23.08 44.252a.737.737 0 01-.737-.737v-.017a.737.737 0 111.474 0v.017c0 .407-.33.737-.737.737z" fill="#fff"></path><path d="M41.692 47.35H25.996a.737.737 0 010-1.474h15.696a.737.737 0 110 1.474z" fill="#FFCADD"></path><path d="M23.08 47.358a.737.737 0 01-.737-.736v-.017a.737.737 0 111.474 0v.017c0 .407-.33.736-.737.736z" fill="#fff"></path><path d="M37.271 50.456H25.996a.737.737 0 110-1.473H37.27a.737.737 0 010 1.473z" fill="#FFCADD"></path><path d="M23.08 50.465a.737.737 0 01-.737-.737v-.017a.737.737 0 111.474 0v.017c0 .407-.33.737-.737.737z" fill="#fff"></path><path d="M32.409 53.563h-6.413a.737.737 0 110-1.474h6.413a.737.737 0 110 1.474z" fill="#FFCADD"></path><path d="M23.08 53.571a.737.737 0 01-.737-.737v-.017a.737.737 0 111.474 0v.017c0 .407-.33.737-.737.737z" fill="#fff"></path><path d="M35.061 56.67h-9.065a.737.737 0 110-1.474h9.065a.737.737 0 110 1.473z" fill="#FFCADD"></path><path d="M23.08 56.678a.737.737 0 01-.737-.737v-.017a.737.737 0 111.474 0v.017c0 .407-.33.737-.737.737z" fill="#fff"></path><path d="M54.287 42.512c.407 0 .737-.33.737-.737V3.807c0-2.1-1.708-3.807-3.807-3.807H29.842a.737.737 0 100 1.474h16.395l-.959 3.177a.732.732 0 01-.705.524H27.488a.732.732 0 01-.706-.524L25.537.524A.737.737 0 0024.83 0h-3.988a3.811 3.811 0 00-3.806 3.807v57.812c0 2.1 1.707 3.807 3.806 3.807h30.374c2.1 0 3.807-1.708 3.807-3.807V46.785a.737.737 0 00-1.473 0V61.62a2.336 2.336 0 01-2.334 2.334H20.844a2.336 2.336 0 01-2.334-2.334V3.807a2.336 2.336 0 012.333-2.333h3.441l1.088 3.603a2.198 2.198 0 002.116 1.571h17.085c.982 0 1.833-.631 2.116-1.571l1.088-3.603h3.44a2.336 2.336 0 012.334 2.333v37.968c0 .407.33.737.736.737z" fill="#333C4E"></path><path d="M49.088 60.857a.734.734 0 001.042 0l.86-.86a.737.737 0 000-1.041l-.86-.86a.737.737 0 10-1.042 1.042l.339.339-.339.338a.737.737 0 000 1.042zM22.972 5.47a.737.737 0 00-1.042 0l-.86.86a.736.736 0 000 1.042l.86.86a.735.735 0 001.043 0 .737.737 0 000-1.043l-.34-.339.34-.338a.737.737 0 000-1.042z" fill="#333C4E"></path><path d="M43.55 38.68H28.51a.737.737 0 01-.737-.736v-2.018c0-.407.33-.737.737-.737h15.04c.407 0 .737.33.737.737v2.018c0 .406-.33.736-.736.736z" fill="#FF9D33"></path><path d="M21.757 35.288a3.217 3.217 0 01-4.547.173l-5.39-4.994a3.218 3.218 0 014.374-4.721l5.39 4.994a3.218 3.218 0 01.173 4.548z" fill="#F9D6BF"></path><path fill-rule="evenodd" clip-rule="evenodd" d="M20.611 34.226a1.656 1.656 0 00-.089-2.34l-5.39-4.994a1.655 1.655 0 10-2.25 2.429l5.39 4.994c.671.622 1.718.581 2.34-.089zm.974-3.486a3.218 3.218 0 01-4.375 4.72l-5.39-4.993a3.218 3.218 0 014.374-4.721l5.39 4.994z" fill="#333C4E"></path><path d="M21.757 52.843a3.217 3.217 0 01-4.547.173l-5.39-4.995a3.218 3.218 0 014.374-4.72l5.39 4.994a3.218 3.218 0 01.173 4.547z" fill="#F9D6BF"></path><path fill-rule="evenodd" clip-rule="evenodd" d="M11.82 48.021l5.39 4.995a3.217 3.217 0 104.375-4.721L16.194 43.3a3.218 3.218 0 00-4.374 4.721zm6.452 3.849c.671.621 1.718.58 2.339-.09l1.146 1.063-1.146-1.063a1.656 1.656 0 00-.088-2.34l-5.391-4.994a1.655 1.655 0 00-2.339.09m5.48 7.334l-5.39-4.995a1.656 1.656 0 01-.09-2.34" fill="#333C4E"></path><path d="M21.757 44.065a3.217 3.217 0 01-4.547.173l-5.39-4.994a3.217 3.217 0 114.374-4.72l5.39 4.994a3.217 3.217 0 01.173 4.547z" fill="#F9D6BF"></path><path fill-rule="evenodd" clip-rule="evenodd" d="M20.61 43.003h.001a1.655 1.655 0 00-.088-2.339l-5.391-4.995a1.655 1.655 0 00-2.25 2.428l5.39 4.995a1.655 1.655 0 002.339-.089zm.975-3.485l-5.391-4.995a3.217 3.217 0 10-4.374 4.72l5.39 4.995a3.217 3.217 0 004.375-4.72z" fill="#333C4E"></path></g><defs><linearGradient id="customized-branding_svg__paint0_linear" x1="1.88" y1="40" x2="78.12" y2="40" gradientUnits="userSpaceOnUse"><stop offset="0.049" stop-color="#FFDBE4"></stop><stop offset="0.999" stop-color="#FFE8D2"></stop></linearGradient><clipPath id="customized-branding_svg__clip0"><path fill="#fff" d="M0 0h80v80H0z"></path></clipPath></defs></svg>