<svg width="80" height="80" viewBox="0 0 80 80" fill="currentColor" xmlns="http://www.w3.org/2000/svg" size="80"><g clip-path="url(#online-payment_svg__clip0)"><path opacity="0.23" d="M80 40.39c0-4.317-1.954-8.365-5.367-11.85a32.303 32.303 0 01-5.861-8.242C63.945 10.577 55.717 4.174 46.376 4.174c-6.638 0-12.714 3.234-17.407 8.594-3.106 3.548-7.028 6.27-11.404 8.027C6.965 25.05 0 32.239 0 40.39c0 8.151 6.965 15.339 17.565 19.596 4.376 1.757 8.298 4.478 11.404 8.026 4.693 5.36 10.769 8.594 17.407 8.594 9.34 0 17.57-6.403 22.396-16.124a32.306 32.306 0 015.861-8.242C78.046 48.755 80 44.708 80 40.39z" fill="url(#online-payment_svg__paint0_linear)"></path><path opacity="0.1" d="M66.59 51.56a2.917 2.917 0 00-2.917 2.917v-2.812a2.917 2.917 0 00-3.874-2.753V8.844a3.453 3.453 0 00-3.453-3.453H26.388a3.453 3.453 0 00-3.453 3.453v58.703A3.453 3.453 0 0026.388 71h14.326c1.223 4.423 5.273 7.672 10.086 7.672h8.241c5.78 0 10.466-4.686 10.466-10.466V54.477a2.918 2.918 0 00-2.917-2.917z" fill="#333C4E"></path><path d="M61.744 19.229h-3.362V8.776h3.362c.594 0 1.075.482 1.075 1.076v8.302c0 .593-.481 1.075-1.075 1.075zM20.498 29.985h3.854V8.776h-3.854c-.594 0-.583.482-.583 1.076v19.057c0 .594-.01 1.076.583 1.076z" fill="#E6034B"></path><path d="M56.346 67.719H26.388a3.453 3.453 0 01-3.453-3.453V5.562a3.453 3.453 0 013.453-3.453h29.958a3.453 3.453 0 013.453 3.454v58.703a3.453 3.453 0 01-3.453 3.453z" fill="#F56565"></path><path d="M22.935 10.252H59.8v49.324H22.935V10.252z" fill="#fff"></path><path d="M52.969 34.531v2.6c0 .883-2.419 1.619-5.39 1.619-2.973 0-5.341-.711-5.341-1.594v-.295l-.05-2.06h.025c.403.76 2.62 1.35 5.29 1.35s5.415-.737 5.415-1.62h.05z" fill="#E2A63B"></path><path d="M47.5 24.688v2.588h-.05c0 .912-2.434 1.627-5.312 1.627a12.595 12.595 0 01-3.32-.37l-.05.05a5.743 5.743 0 00-1.82-1.011v-.05l-.073-2.736c.172.838 2.46 1.504 5.239 1.504s5.337-.715 5.337-1.602h.049z" fill="#F4B844"></path><path d="M47.5 24.779c0 .901-2.435 1.627-5.337 1.627-2.902 0-5.091-.676-5.263-1.527 0-.025-.025-.076-.025-.1 0-.902 2.361-1.653 5.288-1.653 2.927-.025 5.337.726 5.337 1.652z" fill="#FEDB41"></path><path d="M42.263 34.885l-.025-.546-.05-2.233c.175.843 2.507 1.514 5.34 1.514 2.833 0 5.34-.72 5.416-1.589h.025v2.581h-.05c0 .893-2.432 1.638-5.391 1.638s-4.864-.596-5.265-1.365z" fill="#F4B844"></path><path d="M38.75 36.458c.703-.608 1.25-1.387 1.536-2.24h.13c.574.05 1.147.074 1.772.074h.26v.535l.052 2.045h-.286a14.393 14.393 0 01-3.386-.34l-.078-.074z" fill="#E2A63B"></path><path d="M42.449 31.736v.126l.051 2.357h-.257c-.644 0-1.236-.026-1.802-.076h-.129a5.128 5.128 0 00.13-2.737h.128c.54.05 1.08.076 1.673.076l.231.127c-.025.05-.025.101-.025.127z" fill="#F4B844"></path><path d="M38.644 28.604a13.06 13.06 0 003.387.371c2.935 0 5.419-.717 5.419-1.631h.05v2.916c-2.735 0-4.967.643-5.243 1.459l-.226-.124a16.11 16.11 0 01-1.58-.074h-.126a4.975 4.975 0 00-1.731-2.892l.05-.025z" fill="#E2A63B"></path><path d="M40.423 31.547a5.455 5.455 0 00-1.77-2.965 4.734 4.734 0 00-1.893-1.047 4.814 4.814 0 00-1.57-.249 5.35 5.35 0 00-5.407 5.308A5.35 5.35 0 0035.09 38c1.37 0 2.666-.499 3.688-1.42a5.41 5.41 0 001.495-2.368c.174-.523.25-1.046.25-1.595 0-.348-.1-.722-.1-1.07zM52.956 31.896v.05c-.075.872-2.492 1.595-5.382 1.595-2.89 0-5.133-.673-5.307-1.52v-.125c0-.05 0-.1.024-.15.275-.822 2.492-1.47 5.208-1.47h.075c2.94 0 5.382.723 5.382 1.62z" fill="#FEDB41"></path><path d="M35.157 31.985c-.462 0-.848-.37-.848-.815 0-.444.386-.815.848-.815.462 0 .847.37.847.815 0 .272.231.494.514.494a.506.506 0 00.513-.494c0-.79-.565-1.506-1.36-1.728v-.198a.506.506 0 00-.514-.494.506.506 0 00-.514.494v.198c-.822.197-1.387.913-1.36 1.728 0 .988.846 1.803 1.874 1.803.462 0 .847.37.847.815 0 .445-.385.815-.847.815-.462 0-.848-.37-.848-.815a.506.506 0 00-.513-.494.506.506 0 00-.514.494c0 .815.565 1.507 1.361 1.73v.394c0 .272.231.494.514.494a.506.506 0 00.513-.494v-.395c1.002-.272 1.567-1.284 1.258-2.247a1.863 1.863 0 00-1.771-1.285z" fill="#E2A63B"></path><path d="M55.8 59.575H26.935V47.787c0-.431.35-.781.781-.781H55.02a.78.78 0 01.78.781v11.788z" fill="#EBEBFF"></path><path d="M44.532 6.952h-6.33a.781.781 0 110-1.562h6.33a.781.781 0 110 1.562zM38.19 62.563v1.978c0 .432.35.781.782.781h4.79c.432 0 .782-.35.782-.78v-1.98a.781.781 0 00-.781-.78h-4.791a.781.781 0 00-.781.78zM53.71 64.333h-2.581a.781.781 0 010-1.562h2.58a.781.781 0 110 1.562zM31.605 64.333h-2.58a.781.781 0 010-1.562h2.58a.781.781 0 110 1.562z" fill="#FF4D4D"></path><path d="M66.59 48.279a2.917 2.917 0 00-2.917 2.917v-2.812a2.917 2.917 0 10-5.834 0V46.51a2.917 2.917 0 10-5.835 0V36.183a2.917 2.917 0 10-5.835 0v18.186a2.917 2.917 0 10-5.834 0v10.556c0 5.78 4.685 10.466 10.466 10.466h8.241c5.78 0 10.466-4.686 10.466-10.466V51.196a2.918 2.918 0 00-2.917-2.917z" fill="#FFD6BB"></path><path d="M52.004 38.507h-1.922a1.841 1.841 0 01-1.84-1.84v-.543a.781.781 0 111.563 0v.543c0 .153.124.277.277.277h1.922a.781.781 0 010 1.563z" fill="#FFF3EE"></path><path d="M52.003 42.92h-1.886a.781.781 0 010-1.563h1.886a.781.781 0 110 1.563zM52.003 49.773h-1.886a.781.781 0 110-1.562h1.886a.781.781 0 010 1.562zM57.838 50.242h-1.886a.781.781 0 010-1.562h1.886a.781.781 0 110 1.562zM63.673 51.18h-1.886a.781.781 0 010-1.563h1.886a.781.781 0 110 1.563zM69.507 52.586h-1.886a.781.781 0 110-1.563h1.886a.781.781 0 010 1.563zM42.098 59.999h-1.764a.781.781 0 010-1.563h1.764a.781.781 0 010 1.563z" fill="#FEB2B2"></path><path d="M42.255 56.71h-1.922a.781.781 0 010-1.562h1.922a.277.277 0 00.277-.277v-.543a.781.781 0 111.562 0v.543c0 1.015-.825 1.84-1.839 1.84z" fill="#FFF3EE"></path><path d="M38.026 44.544h-10.31a.781.781 0 110-1.563h10.31a.781.781 0 110 1.563zM33.34 41.384h-5.624a.781.781 0 110-1.562h5.624a.781.781 0 110 1.562z" fill="#F56565"></path><path d="M66.59 47.497c-.797 0-1.537.254-2.141.685a3.703 3.703 0 00-3.694-3.496c-.86 0-1.654.295-2.283.79a3.705 3.705 0 00-3.551-2.665c-.795 0-1.533.252-2.136.68v-7.308c0-2.04-1.66-3.699-3.699-3.699a3.703 3.703 0 00-3.699 3.699V51.35a3.679 3.679 0 00-2.136-.68 3.703 3.703 0 00-3.699 3.698v10.556c0 .687.066 1.36.184 2.013H26.39a2.675 2.675 0 01-2.672-2.672v-3.909h11.44a.781.781 0 000-1.562h-11.44V11.033h35.301v29.358a.781.781 0 001.563 0V20.01h1.163a1.859 1.859 0 001.857-1.857V9.852a1.859 1.859 0 00-1.857-1.857h-1.163V5.562a4.24 4.24 0 00-4.235-4.234H26.39a4.24 4.24 0 00-4.235 4.234v2.433H20.5c-.59 0-1.042.293-1.24.805-.125.324-.125.679-.125 1.021V28.94c0 .343 0 .697.125 1.022.198.511.65.805 1.24.805h1.655v33.5A4.24 4.24 0 0026.39 68.5h13.75c1.497 4.454 5.709 7.672 10.661 7.672h8.242c6.201 0 11.247-5.046 11.247-11.248V51.196c0-2.04-1.66-3.699-3.699-3.699zm-4.846-37.94c.162 0 .294.132.294.295v8.301a.295.295 0 01-.294.295h-1.163v-8.89h1.163zM26.39 2.891h29.957a2.675 2.675 0 012.672 2.671v3.909H23.717V5.562a2.675 2.675 0 012.672-2.671zm-5.69 26.312c-.003-.087-.003-19.558 0-19.646h1.455v9.094a.78.78 0 000 1.459v9.093h-1.455zm48.028 35.721c0 5.34-4.345 9.685-9.686 9.685H50.8c-5.34 0-9.685-4.344-9.685-9.685V54.37c0-1.178.958-2.136 2.136-2.136 1.178 0 2.136.958 2.136 2.136v5.134a.781.781 0 101.563 0v-23.32c0-1.178.958-2.136 2.136-2.136 1.178 0 2.136.958 2.136 2.136v18.145a.781.781 0 001.563 0v-7.819c0-1.177.958-2.136 2.136-2.136 1.178 0 2.136.959 2.136 2.137v7.818a.781.781 0 101.563 0v-5.944c0-1.178.958-2.136 2.136-2.136 1.178 0 2.136.958 2.136 2.136v5.944a.781.781 0 001.562 0v-3.132c0-1.178.959-2.136 2.137-2.136s2.136.958 2.136 2.136v13.728z" fill="#333C4E"></path><path d="M27.615 13.919l-.912.911a.781.781 0 101.105 1.105l.36-.359.358.36a.781.781 0 001.105-1.106l-.911-.91a.781.781 0 00-1.105-.001z" fill="#333C4E"></path><path d="M52.849 18.88a2.598 2.598 0 01-2.596-2.595 2.598 2.598 0 012.596-2.595 2.598 2.598 0 012.595 2.595 2.598 2.598 0 01-2.595 2.595zm0-3.628a1.034 1.034 0 000 2.066 1.034 1.034 0 000-2.066z" fill="#F56565"></path><path d="M54.663 20.695a.781.781 0 01-.781-.781 1.034 1.034 0 00-2.066 0 .781.781 0 11-1.563 0 2.598 2.598 0 012.596-2.596 2.598 2.598 0 012.595 2.596c0 .431-.35.78-.781.78z" fill="#F56565"></path><path d="M47.772 20.694h-1.953a.781.781 0 110-1.562h1.953a.781.781 0 110 1.562zM47.772 18.003h-1.953a.781.781 0 110-1.563h1.953a.781.781 0 110 1.563z" fill="#D9D9FF"></path><path d="M69.183 42.166c-.2 0-.4-.076-.552-.229l-1.01-1.01-1.01 1.01a.781.781 0 01-1.105-1.105l1.563-1.562a.781.781 0 011.104 0l1.563 1.562a.781.781 0 01-.553 1.334z" fill="#E6034B"></path><path d="M17.993 36.406a.78.78 0 01-.553-.229l-1.01-1.01-1.01 1.01a.781.781 0 01-1.105-1.104l1.563-1.563a.781.781 0 011.105 0l1.562 1.563a.781.781 0 01-.552 1.333z" fill="#F56565"></path><path d="M37.246 77.734c-.2 0-.4-.076-.553-.228l-1.01-1.01-1.01 1.01a.781.781 0 01-1.105-1.105l1.563-1.563a.781.781 0 011.105 0l1.562 1.563a.781.781 0 01-.552 1.333zM66.84 34.844a.781.781 0 01-.552-1.334l1.562-1.562a.781.781 0 111.105 1.104l-1.563 1.563a.778.778 0 01-.552.229zM10.492 31.297a.781.781 0 01-.553-1.334l1.563-1.563a.781.781 0 011.105 1.105l-1.562 1.563a.779.779 0 01-.553.229z" fill="#B71717"></path></g><defs><linearGradient id="online-payment_svg__paint0_linear" x1="80" y1="76.606" x2="20.05" y2="-9.746" gradientUnits="userSpaceOnUse"><stop stop-color="#E6034B"></stop><stop offset="1" stop-color="#FF9300"></stop></linearGradient><clipPath id="online-payment_svg__clip0"><path fill="#fff" d="M0 0h80v80H0z"></path></clipPath></defs></svg>